<mxfile host="app.diagrams.net" agent="Mozilla/5.0 (Macintosh; Intel Mac OS X 10_15_7) AppleWebKit/605.1.15 (KHTML, like Gecko) Version/17.4 Safari/605.1.15" version="25.0.0">
  <diagram name="第 1 页" id="Km5z_Gf6yEYFer8hlXeI">
    <mxGraphModel dx="984" dy="667" grid="0" gridSize="10" guides="1" tooltips="1" connect="1" arrows="1" fold="1" page="1" pageScale="1" pageWidth="827" pageHeight="1169" math="0" shadow="0">
      <root>
        <mxCell id="0" />
        <mxCell id="1" parent="0" />
        <mxCell id="GBYrTep8T2H1uXzMo5nn-11" style="edgeStyle=orthogonalEdgeStyle;rounded=0;orthogonalLoop=1;jettySize=auto;html=1;exitX=0.5;exitY=1;exitDx=0;exitDy=0;entryX=0.5;entryY=0;entryDx=0;entryDy=0;" edge="1" parent="1" source="GBYrTep8T2H1uXzMo5nn-2" target="GBYrTep8T2H1uXzMo5nn-3">
          <mxGeometry relative="1" as="geometry" />
        </mxCell>
        <mxCell id="GBYrTep8T2H1uXzMo5nn-2" value="&lt;font style=&quot;font-size: 18px;&quot;&gt;开始&lt;/font&gt;" style="ellipse;whiteSpace=wrap;html=1;" vertex="1" parent="1">
          <mxGeometry x="340" y="70" width="90" height="40" as="geometry" />
        </mxCell>
        <mxCell id="GBYrTep8T2H1uXzMo5nn-12" style="edgeStyle=orthogonalEdgeStyle;rounded=0;orthogonalLoop=1;jettySize=auto;html=1;exitX=0.5;exitY=1;exitDx=0;exitDy=0;entryX=0.5;entryY=0;entryDx=0;entryDy=0;" edge="1" parent="1" source="GBYrTep8T2H1uXzMo5nn-3" target="GBYrTep8T2H1uXzMo5nn-5">
          <mxGeometry relative="1" as="geometry" />
        </mxCell>
        <mxCell id="GBYrTep8T2H1uXzMo5nn-3" value="&lt;span style=&quot;text-align: start; font-size: medium;&quot;&gt;初始化矩阵 m1 和 m2&lt;/span&gt;" style="rounded=1;whiteSpace=wrap;html=1;" vertex="1" parent="1">
          <mxGeometry x="333.75" y="140" width="102.5" height="40" as="geometry" />
        </mxCell>
        <mxCell id="GBYrTep8T2H1uXzMo5nn-13" style="edgeStyle=orthogonalEdgeStyle;rounded=0;orthogonalLoop=1;jettySize=auto;html=1;exitX=0.5;exitY=1;exitDx=0;exitDy=0;entryX=0.5;entryY=0;entryDx=0;entryDy=0;" edge="1" parent="1" source="GBYrTep8T2H1uXzMo5nn-5" target="GBYrTep8T2H1uXzMo5nn-6">
          <mxGeometry relative="1" as="geometry" />
        </mxCell>
        <mxCell id="GBYrTep8T2H1uXzMo5nn-5" value="&lt;span style=&quot;text-align: start; font-size: medium;&quot;&gt;填充矩阵 m1 和 m2 的元素&lt;/span&gt;" style="rounded=1;whiteSpace=wrap;html=1;" vertex="1" parent="1">
          <mxGeometry x="333.75" y="210" width="102.5" height="40" as="geometry" />
        </mxCell>
        <mxCell id="GBYrTep8T2H1uXzMo5nn-14" style="edgeStyle=orthogonalEdgeStyle;rounded=0;orthogonalLoop=1;jettySize=auto;html=1;exitX=0.5;exitY=1;exitDx=0;exitDy=0;entryX=0.5;entryY=0;entryDx=0;entryDy=0;" edge="1" parent="1" source="GBYrTep8T2H1uXzMo5nn-6" target="GBYrTep8T2H1uXzMo5nn-8">
          <mxGeometry relative="1" as="geometry" />
        </mxCell>
        <mxCell id="GBYrTep8T2H1uXzMo5nn-6" value="&lt;span style=&quot;text-align: start; font-size: medium;&quot;&gt;执行矩阵加法操作&lt;/span&gt;" style="rounded=1;whiteSpace=wrap;html=1;" vertex="1" parent="1">
          <mxGeometry x="316.88" y="280" width="136.25" height="40" as="geometry" />
        </mxCell>
        <mxCell id="GBYrTep8T2H1uXzMo5nn-15" style="edgeStyle=orthogonalEdgeStyle;rounded=0;orthogonalLoop=1;jettySize=auto;html=1;exitX=0.5;exitY=1;exitDx=0;exitDy=0;entryX=0.5;entryY=0;entryDx=0;entryDy=0;" edge="1" parent="1" source="GBYrTep8T2H1uXzMo5nn-8" target="GBYrTep8T2H1uXzMo5nn-9">
          <mxGeometry relative="1" as="geometry" />
        </mxCell>
        <mxCell id="GBYrTep8T2H1uXzMo5nn-8" value="&lt;span style=&quot;text-align: start; font-size: medium;&quot;&gt;执行矩阵乘法操作&lt;/span&gt;" style="rounded=1;whiteSpace=wrap;html=1;" vertex="1" parent="1">
          <mxGeometry x="316.87" y="350" width="136.25" height="40" as="geometry" />
        </mxCell>
        <mxCell id="GBYrTep8T2H1uXzMo5nn-16" style="edgeStyle=orthogonalEdgeStyle;rounded=0;orthogonalLoop=1;jettySize=auto;html=1;exitX=0.5;exitY=1;exitDx=0;exitDy=0;entryX=0.5;entryY=0;entryDx=0;entryDy=0;" edge="1" parent="1" source="GBYrTep8T2H1uXzMo5nn-9" target="GBYrTep8T2H1uXzMo5nn-10">
          <mxGeometry relative="1" as="geometry" />
        </mxCell>
        <mxCell id="GBYrTep8T2H1uXzMo5nn-9" value="&lt;span style=&quot;text-align: start; font-size: medium;&quot;&gt;加法和乘法的结果&lt;/span&gt;" style="shape=parallelogram;perimeter=parallelogramPerimeter;whiteSpace=wrap;html=1;fixedSize=1;" vertex="1" parent="1">
          <mxGeometry x="312.5" y="420" width="145.01" height="40" as="geometry" />
        </mxCell>
        <mxCell id="GBYrTep8T2H1uXzMo5nn-10" value="&lt;font size=&quot;4&quot;&gt;结束&lt;/font&gt;" style="ellipse;whiteSpace=wrap;html=1;" vertex="1" parent="1">
          <mxGeometry x="340" y="480" width="90" height="40" as="geometry" />
        </mxCell>
      </root>
    </mxGraphModel>
  </diagram>
</mxfile>
